<?xml version="1.0" encoding="utf-8"?>
<!-- Generator: Adobe Illustrator 24.0.0, SVG Export Plug-In . SVG Version: 6.00 Build 0)  -->
<svg version="1.1" id="Layer_1" xmlns="http://www.w3.org/2000/svg" xmlns:xlink="http://www.w3.org/1999/xlink" x="0px" y="0px"
	 viewBox="0 0 360 184.3" style="enable-background:new 0 0 360 184.3;" xml:space="preserve">
<style type="text/css">
	.st0{fill:#FFFFFF;}
	.st1{fill:#801E2B;}
	.st2{fill:#7BACC5;}
</style>
<title>LB_logo</title>
<path class="st0" d="M259.1,44.9C233,1.2,176.5-13.1,132.8,13c-13.1,7.8-24.1,18.8-31.9,31.9H0v14.8c0,21.6,14.8,40.4,35.8,45.4
	c4.8,20.3,23.4,35.1,45.5,35.1h20c26.5,43.4,83.2,57.2,126.6,30.7c12.5-7.6,23-18.2,30.7-30.7h20c22.1,0,40.7-14.7,45.5-35.1
	c21-5,35.9-23.8,35.9-45.4V44.9H259.1z"/>
<path class="st1" d="M180,177.4c-31,0-59.6-16.9-74.5-44.1H81.3c-20.4,0-37.3-15-39.3-34.1C22.1,96.8,7.2,79.9,7.1,59.9v-7.6H105
	c22.1-41.4,73.6-57,115-34.9c14.8,7.9,27,20.1,34.9,34.9h97.9v7.6c0,20-15,36.9-34.9,39.3c-2.1,19.1-18.9,34.1-39.3,34.1h-24.1
	C239.6,160.4,211,177.3,180,177.4z"/>
<path class="st2" d="M256.3,59.9l1,28c-2.5-42.7-39.1-75.3-81.7-72.8c-28.5,1.6-53.8,18.9-65.8,44.8h-95c0,17.6,14.3,31.9,31.9,31.9
	c0,0,0,0,0,0h56c0,0.2,0,0.4,0,0.6c0,1,0,1.9,0.1,2.8H49.4c0,16.8,14.3,30.4,31.9,30.4h23.2l-0.1-16.4c9.3,41.7,50.7,68,92.4,58.7
	c23.2-5.2,42.8-20.8,53-42.3h28.8c17.6,0,31.9-13.6,31.9-30.4h-53.3c0-0.9,0.1-1.9,0.1-2.8c0-0.6,0-1.2,0-1.8v1.2h56
	c17.6,0,31.9-14.3,31.9-31.9L256.3,59.9z"/>
<circle class="st1" cx="180" cy="92.3" r="69.7"/>
<circle class="st0" cx="180" cy="92.3" r="63.1"/>
<polygon class="st1" points="180,35 183,44.1 192.5,44.1 184.8,49.8 187.8,58.9 180,53.2 172.3,58.9 175.2,49.8 167.5,44.1 
	177,44.1 "/>
<polygon class="st1" points="180,123.4 183,132.5 192.5,132.5 184.8,138.1 187.8,147.2 180,141.6 172.3,147.2 175.2,138.1 
	167.5,132.5 177,132.5 "/>
<polygon class="st1" points="220.5,79.2 223.4,88.3 233,88.3 225.3,93.9 228.2,103.1 220.5,97.4 212.7,103.1 215.7,93.9 207.9,88.3 
	217.5,88.3 "/>
<polygon class="st1" points="139.5,79.2 142.5,88.3 152.1,88.3 144.3,93.9 147.3,103.1 139.5,97.4 131.8,103.1 134.8,93.9 127,88.3 
	136.6,88.3 "/>
<path class="st2" d="M166.3,86l37.8,37.7c1.1,1.3,3,1.5,4.4,0.5c1.3-1.1,1.5-3,0.5-4.4c-0.1-0.2-0.3-0.3-0.5-0.5l-37.8-37.7
	c-3.1-3.1-3.1-5.3-3.9-9s-2.2-6.9-6.7-10.3s-15-10.3-19.7-5.4s1.3,13.9,3.7,17.2s4.8,7.8,11.3,9S163.8,83.6,166.3,86z"/>
<path class="st2" d="M150.9,119.4c-1.3,1.1-1.5,3-0.4,4.4c1.1,1.3,3,1.5,4.4,0.4c0.2-0.1,0.3-0.3,0.5-0.5l21.3-21.3l-4.4-4.4
	L150.9,119.4z"/>
<path class="st2" d="M204.1,83.6l18.9-18.7c0.6-0.5,0.7-1.3,0.2-1.9c-0.5-0.6-1.3-0.7-1.9-0.2c-0.1,0.1-0.1,0.1-0.2,0.2l-11.8,11.8
	c-0.5,0.6-1.3,0.6-1.9,0.1c-0.6-0.5-0.6-1.3-0.1-1.9c0-0.1,0.1-0.1,0.1-0.1l11.9-11.8c0.6-0.5,0.6-1.3,0.1-1.9
	c-0.5-0.6-1.3-0.6-1.9-0.1c-0.1,0-0.1,0.1-0.1,0.1l-11.9,11.8c-0.5,0.6-1.3,0.7-1.9,0.2c-0.6-0.5-0.7-1.3-0.2-1.9
	c0.1-0.1,0.1-0.1,0.2-0.2l11.8-11.8c0.5-0.5,0.6-1.3,0.1-1.9c-0.5-0.5-1.3-0.6-1.9-0.1c0,0,0,0-0.1,0.1l-11.8,11.8
	c-0.5,0.6-1.3,0.6-1.9,0.2c-0.6-0.5-0.6-1.3-0.2-1.9c0-0.1,0.1-0.1,0.1-0.1l11.8-11.8c0.6-0.5,0.6-1.3,0.2-1.9
	c-0.5-0.6-1.3-0.6-1.9-0.2c-0.1,0-0.1,0.1-0.1,0.1l-18.7,18.8c-3,2.8-3.9,7.2-2.4,11l-6.1,6.2l4.4,4.4l6.1-6.1
	C196.9,87.6,201.2,86.6,204.1,83.6z"/>
</svg>
