<?xml version="1.0" encoding="utf-8"?>
<!-- Generator: Adobe Illustrator 24.0.0, SVG Export Plug-In . SVG Version: 6.00 Build 0)  -->
<svg version="1.1" id="Layer_1" xmlns="http://www.w3.org/2000/svg" xmlns:xlink="http://www.w3.org/1999/xlink" x="0px" y="0px"
	 viewBox="0 0 805.6 36" style="enable-background:new 0 0 805.6 36;" xml:space="preserve">
<style type="text/css">
	.st0{fill:#801E2B;}
</style>
<title>red_checker</title>
<rect x="214.8" y="0" class="st0" width="17.9" height="17.9"/>
<rect x="250.6" y="0" class="st0" width="17.9" height="17.9"/>
<rect x="196.9" y="18.2" class="st0" width="17.9" height="17.9"/>
<rect x="179" y="0" class="st0" width="17.9" height="17.9"/>
<rect x="161.1" y="18.2" class="st0" width="17.9" height="17.9"/>
<rect x="143.2" y="0" class="st0" width="17.9" height="17.9"/>
<rect x="125.3" y="18.2" class="st0" width="17.9" height="17.9"/>
<rect x="107.4" y="0" class="st0" width="17.9" height="17.9"/>
<rect x="89.5" y="18.2" class="st0" width="17.9" height="17.9"/>
<rect x="71.6" y="0" class="st0" width="17.9" height="17.9"/>
<rect x="53.7" y="18.2" class="st0" width="17.9" height="17.9"/>
<rect x="35.8" y="0" class="st0" width="17.9" height="17.9"/>
<rect y="0" class="st0" width="17.9" height="17.9"/>
<rect x="17.9" y="18.2" class="st0" width="17.9" height="17.9"/>
<rect x="232.7" y="18.2" class="st0" width="17.9" height="17.9"/>
<rect x="751.9" y="0" class="st0" width="17.9" height="17.9"/>
<rect x="787.7" y="0" class="st0" width="17.9" height="17.9"/>
<rect x="734" y="18.2" class="st0" width="17.9" height="17.9"/>
<rect x="716.1" y="0" class="st0" width="17.9" height="17.9"/>
<rect x="698.1" y="18.2" class="st0" width="17.9" height="17.9"/>
<rect x="680.3" y="0" class="st0" width="17.9" height="17.9"/>
<rect x="662.4" y="18.2" class="st0" width="17.9" height="17.9"/>
<rect x="644.5" y="0" class="st0" width="17.9" height="17.9"/>
<rect x="626.5" y="18.2" class="st0" width="17.9" height="17.9"/>
<rect x="608.6" y="0" class="st0" width="17.9" height="17.9"/>
<rect x="590.8" y="18.2" class="st0" width="17.9" height="17.9"/>
<rect x="572.8" y="0" class="st0" width="17.9" height="17.9"/>
<rect x="537" y="0" class="st0" width="17.9" height="17.9"/>
<rect x="555" y="18.2" class="st0" width="17.9" height="17.9"/>
<rect x="769.8" y="18.2" class="st0" width="17.9" height="17.9"/>
<rect x="304.3" y="18.2" class="st0" width="17.9" height="17.9"/>
<rect x="268.5" y="18.2" class="st0" width="17.9" height="17.9"/>
<rect x="322.2" y="0" class="st0" width="17.9" height="17.9"/>
<rect x="340.1" y="18.2" class="st0" width="17.9" height="17.9"/>
<rect x="358" y="0" class="st0" width="17.9" height="17.9"/>
<rect x="375.9" y="18.2" class="st0" width="17.9" height="17.9"/>
<rect x="393.8" y="0" class="st0" width="17.9" height="17.9"/>
<rect x="411.7" y="18.2" class="st0" width="17.9" height="17.9"/>
<rect x="429.6" y="0" class="st0" width="17.9" height="17.9"/>
<rect x="447.5" y="18.2" class="st0" width="17.9" height="17.9"/>
<rect x="465.4" y="0" class="st0" width="17.9" height="17.9"/>
<rect x="483.3" y="18.2" class="st0" width="17.9" height="17.9"/>
<rect x="519.1" y="18.2" class="st0" width="17.9" height="17.9"/>
<rect x="501.2" y="0" class="st0" width="17.9" height="17.9"/>
<rect x="286.4" y="0" class="st0" width="17.9" height="17.9"/>
</svg>
